<svg width="212" height="32" viewBox="0 0 212 32" fill="none" xmlns="http://www.w3.org/2000/svg">
<path d="M169.542 26.9065C169.853 27.5724 170.523 27.9979 171.257 27.9979V28C171.991 28 172.659 27.5745 172.971 26.9087L182.445 6.70072C182.889 5.75403 182.481 4.62652 181.534 4.1819C180.587 3.73728 179.46 4.14574 179.015 5.09242L171.259 21.6391L163.509 5.09242C163.066 4.14361 161.937 3.73515 160.99 4.17978C160.041 4.62227 159.633 5.75191 160.077 6.69859L169.542 26.9065Z" fill="#8EC63F"/>
<path fill-rule="evenodd" clip-rule="evenodd" d="M146.628 27.9979C140.012 27.9979 134.63 22.6156 134.63 15.9995C134.63 9.38334 140.014 4.00108 146.628 4.00108C153.242 4.00108 158.626 9.38334 158.626 15.9995C158.626 17.0461 157.778 17.8928 156.731 17.8928H138.64C139.497 21.5094 142.754 24.2069 146.628 24.2069C149.13 24.2069 151.466 23.0858 153.034 21.1307C153.689 20.3138 154.88 20.184 155.697 20.8393C156.514 21.4945 156.644 22.6858 155.988 23.5027C153.697 26.3577 150.285 27.9957 146.628 27.9957V27.9979ZM154.616 14.1061C153.759 10.4896 150.502 7.79206 146.628 7.79206C142.754 7.79206 139.497 10.4896 138.64 14.1061H154.616Z" fill="#8EC63F"/>
<path fill-rule="evenodd" clip-rule="evenodd" d="M183.895 15.5251C183.632 22.3561 189.112 27.9979 195.885 27.9979C199.542 27.9979 202.954 26.3598 205.246 23.5049C205.901 22.6879 205.771 21.4966 204.954 20.8414C204.137 20.1862 202.946 20.3181 202.291 21.1328C200.723 23.0879 198.387 24.209 195.885 24.209C192.011 24.209 188.754 21.5115 187.897 17.895H205.984C207.016 17.895 207.884 17.0504 207.884 16.0165C207.892 9.19826 202.186 3.68623 195.3 4.01597C189.116 4.30955 184.136 9.34079 183.895 15.5251ZM195.885 7.79206C199.759 7.79206 203.016 10.4896 203.873 14.1061H187.897C188.754 10.4896 192.011 7.79206 195.885 7.79206Z" fill="#8EC63F"/>
<path d="M46.2796 11.2171H48.0369V11.215C50.3451 11.215 51.8342 11.6298 52.5873 12.4787C52.9043 12.8361 52.8703 13.3849 52.5129 13.7019C52.3491 13.8487 52.1427 13.921 51.9385 13.921C51.7002 13.921 51.4619 13.8232 51.2896 13.6296C51.1088 13.4254 50.4302 12.9509 48.0369 12.9509H48.0241V19.916C48.0241 20.3946 47.6369 20.7818 47.1583 20.7818C46.6796 20.7818 46.2924 20.3946 46.2924 19.916V12.9509H46.2796C43.8863 12.9509 43.2077 13.4254 43.0269 13.6296C42.7099 13.9891 42.161 14.021 41.8036 13.704C41.4441 13.3871 41.4122 12.8382 41.7292 12.4808C42.4823 11.6298 43.9714 11.2171 46.2796 11.2171Z" fill="#8EC63F"/>
<path fill-rule="evenodd" clip-rule="evenodd" d="M8.62084 11.2171H10.3504C14.7115 11.2171 15.3625 13.3275 15.3625 14.5316C15.3625 15.7357 14.7966 16.6675 13.7287 17.227C12.933 17.6439 11.88 17.846 10.5078 17.846H5.84887V19.916C5.84887 20.3946 5.46169 20.7818 4.98303 20.7818C4.50437 20.7818 4.11719 20.3946 4.11719 19.916V15.2506C4.11719 12.9892 6.09565 11.2171 8.62084 11.2171ZM5.851 16.1122H10.5078C13.6287 16.1122 13.6287 14.9634 13.6287 14.5316C13.6287 13.4828 12.5267 12.9509 10.3504 12.9509H8.62084C7.04233 12.9509 5.851 13.9402 5.851 15.2506V16.1122Z" fill="#8EC63F"/>
<path fill-rule="evenodd" clip-rule="evenodd" d="M83.5534 11.2171H85.1893C88.2889 11.2171 89.9951 12.851 89.9951 15.8144V16.1867C89.9951 19.1522 88.2889 20.7839 85.1893 20.7839H83.5534C80.4538 20.7839 78.7477 19.1522 78.7477 16.1867V15.8144C78.7477 12.8488 80.4538 11.2171 83.5534 11.2171ZM85.1872 19.048C87.3125 19.048 88.2591 18.1651 88.2591 16.1846V15.8123C88.2591 13.8317 87.3125 12.9488 85.1872 12.9488H83.5513C81.426 12.9488 80.4793 13.8317 80.4793 15.8123V16.1846C80.4793 18.1651 81.426 19.048 83.5513 19.048H85.1872Z" fill="#8EC63F"/>
<path fill-rule="evenodd" clip-rule="evenodd" d="M102.383 14.5316C102.383 13.2935 101.732 11.2171 97.3707 11.2171H95.6411C93.116 11.2171 91.1375 12.9892 91.1375 15.2506V19.916C91.1375 20.3946 91.5247 20.7818 92.0033 20.7818C92.482 20.7818 92.8692 20.3946 92.8692 19.916V17.846H98.0621C98.328 17.846 98.5514 17.8694 98.745 17.9162C99.6938 18.1481 100.234 18.8459 100.351 19.9947C100.396 20.4414 100.772 20.7733 101.213 20.7733C101.243 20.7733 101.272 20.7733 101.302 20.7691C101.779 20.7201 102.125 20.2946 102.076 19.8202C101.964 18.7098 101.542 17.8014 100.872 17.1589C101.859 16.593 102.381 15.6889 102.381 14.5337L102.383 14.5316ZM92.8713 15.2506C92.8713 13.9402 94.0626 12.9509 95.6411 12.9509H97.3707C99.547 12.9509 100.649 13.4828 100.649 14.5316C100.649 14.9634 100.649 16.1122 97.5281 16.1122H92.8692V15.2506H92.8713Z" fill="#8EC63F"/>
<path d="M27.9289 17.4674C27.9289 16.9887 27.5417 16.6015 27.0631 16.6015C26.5844 16.6015 26.1972 16.9887 26.1972 17.4674C26.1972 17.946 26.1972 19.048 23.4338 19.048H20.5448C19.2769 19.048 18.2451 18.0162 18.2451 16.7483V12.083C18.2451 11.6043 17.8579 11.2171 17.3792 11.2171C16.9006 11.2171 16.5134 11.6043 16.5134 12.083V16.7483C16.5134 18.9735 18.3238 20.7818 20.5469 20.7818H23.4359C27.3481 20.7818 27.9332 18.7055 27.9332 17.4674H27.9289Z" fill="#8EC63F"/>
<path fill-rule="evenodd" clip-rule="evenodd" d="M127.613 19.916V17.846H119.78V19.916C119.78 20.3946 119.393 20.7818 118.915 20.7818C118.436 20.7818 118.049 20.3946 118.049 19.916V15.9995C118.049 13.2743 120.174 11.2171 122.991 11.2171H124.403C127.22 11.2171 129.345 13.2722 129.345 15.9995V19.916C129.345 20.3946 128.958 20.7818 128.479 20.7818C128.001 20.7818 127.613 20.3946 127.613 19.916ZM124.405 12.9509H122.993C120.789 12.9509 119.785 14.5316 119.785 15.9995V16.1122H127.613V15.9995C127.613 14.5316 126.609 12.9509 124.405 12.9509Z" fill="#8EC63F"/>
<path fill-rule="evenodd" clip-rule="evenodd" d="M38.6339 17.846V19.916C38.6339 20.3946 39.021 20.7818 39.4997 20.7818C39.9784 20.7818 40.3655 20.3946 40.3655 19.916V15.9995C40.3655 13.2722 38.2403 11.2171 35.4237 11.2171H34.0111C31.1944 11.2171 29.0692 13.2743 29.0692 15.9995V19.916C29.0692 20.3946 29.4564 20.7818 29.935 20.7818C30.4137 20.7818 30.8009 20.3946 30.8009 19.916V17.846H38.6339ZM34.0132 12.9509H35.4258C37.6297 12.9509 38.6339 14.5316 38.6339 15.9995V16.1122H30.8051V15.9995C30.8051 14.5316 31.8092 12.9509 34.0132 12.9509Z" fill="#8EC63F"/>
<path fill-rule="evenodd" clip-rule="evenodd" d="M63.5114 19.916V17.846H55.6784V19.916C55.6784 20.3946 55.2912 20.7818 54.8126 20.7818C54.3339 20.7818 53.9467 20.3946 53.9467 19.916V15.9995C53.9467 13.2743 56.072 11.2171 58.8886 11.2171H60.3012C63.1178 11.2171 65.2431 13.2722 65.2431 15.9995V19.916C65.2431 20.3946 64.8559 20.7818 64.3772 20.7818C63.8986 20.7818 63.5114 20.3946 63.5114 19.916ZM60.3033 12.9509H58.8907C56.6868 12.9509 55.6826 14.5316 55.6826 15.9995V16.1122H63.5114V15.9995C63.5114 14.5316 62.5073 12.9509 60.3033 12.9509Z" fill="#8EC63F"/>
<path d="M73.4143 15.1336H68.2469C68.6809 13.6977 70.1892 12.9509 71.6826 12.9509H72.8463C74.2078 12.9509 75.4162 13.5424 75.9991 14.4954C76.248 14.9039 76.782 15.0315 77.1904 14.7826C77.5989 14.5316 77.7265 13.9997 77.4776 13.5913C76.5671 12.1064 74.8375 11.2193 72.8463 11.2193H71.6826C70.2977 11.2193 69.0022 11.6596 68.0363 12.4617C66.9748 13.3403 66.3919 14.5997 66.3919 16.0037V19.9202C66.3919 20.3989 66.779 20.7861 67.2577 20.7861C67.7364 20.7861 68.1235 20.3989 68.1235 19.9202V16.8717H73.4165C73.8951 16.8717 74.2823 16.4845 74.2823 16.0059C74.2823 15.5272 73.8951 15.14 73.4165 15.14L73.4143 15.1336Z" fill="#8EC63F"/>
<path d="M112.928 12.9488C112.028 12.9488 111.403 13.6211 110.909 14.2763H110.905C110.737 14.4997 110.475 14.6252 110.192 14.6209C109.914 14.6146 109.654 14.4741 109.497 14.2423C108.967 13.4658 108.452 12.9488 107.661 12.9488C106.223 12.9488 105.257 14.1742 105.257 15.9973V19.9138C105.257 20.3925 104.87 20.7797 104.391 20.7797C103.912 20.7797 103.525 20.3925 103.525 19.9138V12.0809C103.525 11.6022 103.932 11.215 104.391 11.215C104.851 11.215 105.225 11.5724 105.255 12.0234C105.936 11.4979 106.767 11.215 107.663 11.215C108.861 11.215 109.692 11.8043 110.246 12.3893C110.837 11.8128 111.722 11.215 112.926 11.215C115.307 11.215 116.906 13.136 116.906 15.9973V19.9138C116.906 20.3925 116.519 20.7797 116.041 20.7797C115.562 20.7797 115.175 20.3925 115.175 19.9138V15.9973C115.175 14.1167 114.313 12.9488 112.928 12.9488Z" fill="#8EC63F"/>
</svg>
